<?xml version="1.0" standalone="no"?>
<!DOCTYPE svg PUBLIC "-//W3C//DTD SVG 20010904//EN"
 "http://www.w3.org/TR/2001/REC-SVG-20010904/DTD/svg10.dtd">
<svg version="1.0" xmlns="http://www.w3.org/2000/svg"
 width="255.000000pt" height="299.000000pt" viewBox="0 0 255.000000 299.000000"
 preserveAspectRatio="xMidYMid meet">
<metadata>
Created by potrace 1.10, written by Peter Selinger 2001-2011
</metadata>
<g transform="translate(0.000000,299.000000) scale(0.100000,-0.100000)"
fill="#000000" stroke="none">
<path d="M559 2793 c-66 -40 -76 -128 -23 -184 15 -16 33 -29 38 -29 6 0 11
-21 11 -49 0 -41 5 -55 29 -80 17 -17 35 -31 40 -31 6 0 11 -21 11 -49 0 -41
5 -55 29 -80 17 -17 35 -31 40 -31 6 0 11 -21 11 -49 0 -47 -2 -50 -36 -65
-53 -23 -150 -89 -179 -120 l-25 -28 -3 -742 -2 -742 23 -35 c29 -43 165 -129
266 -168 128 -49 223 -64 384 -58 174 5 258 26 413 102 62 30 116 55 121 55
27 0 163 65 236 113 153 99 317 290 317 367 0 25 -83 240 -265 683 -145 356
-269 656 -275 667 -13 25 -61 50 -95 50 -25 0 -34 14 -15 25 6 3 10 26 10 49
0 35 5 47 24 59 33 22 59 83 53 123 -4 24 -2 34 7 34 7 0 25 13 40 29 54 56
42 145 -24 185 -83 49 -190 -20 -177 -115 3 -27 1 -39 -7 -39 -7 0 -25 -14
-42 -31 -24 -25 -29 -39 -29 -80 0 -28 -5 -49 -11 -49 -5 0 -23 -14 -40 -31
-23 -24 -29 -39 -29 -73 l0 -43 -103 -11 c-62 -7 -136 -23 -190 -42 -48 -17
-94 -33 -102 -35 -9 -3 -23 8 -35 28 -11 17 -29 36 -40 41 -16 7 -20 18 -20
57 0 39 -5 53 -29 78 -17 17 -35 31 -40 31 -6 0 -11 21 -11 49 0 41 -5 55 -29
80 -17 17 -35 31 -42 31 -8 0 -10 12 -7 39 13 95 -97 165 -178 114z m91 -78
c26 -32 -13 -81 -47 -59 -35 22 -23 74 17 74 10 0 23 -7 30 -15z m1040 0 c26
-32 -13 -81 -47 -59 -35 22 -23 74 17 74 10 0 23 -7 30 -15z m-981 -84 c11
-21 5 -31 -18 -31 -9 0 -27 -9 -41 -20 -25 -19 -25 -19 -37 3 -10 20 -7 24 30
44 52 27 54 27 66 4z m907 5 c11 -8 32 -16 47 -18 26 -3 26 -3 8 -27 -18 -24
-20 -24 -45 -8 -14 9 -34 17 -46 17 -22 0 -27 19 -8 38 15 15 19 15 44 -2z
m-886 -81 c26 -32 -13 -81 -47 -59 -35 22 -23 74 17 74 10 0 23 -7 30 -15z
m880 0 c26 -32 -13 -81 -47 -59 -35 22 -23 74 17 74 10 0 23 -7 30 -15z m-821
-84 c11 -21 5 -31 -18 -31 -9 0 -27 -9 -41 -20 -25 -19 -25 -19 -37 3 -10 20
-7 24 30 44 52 27 54 27 66 4z m739 7 c6 -6 30 -14 53 -17 l41 -6 -22 -28 -22
-27 -28 20 c-15 11 -38 20 -49 20 -24 0 -25 4 -11 31 12 22 21 24 38 7z m-718
-83 c26 -32 -13 -81 -47 -59 -35 22 -23 74 17 74 10 0 23 -7 30 -15z m720 0
c26 -32 -13 -81 -47 -59 -35 22 -23 74 17 74 10 0 23 -7 30 -15z m-67 -113
c-20 -2 -47 -1 -61 3 l-25 6 23 24 23 24 38 -27 38 -27 -36 -3z m-595 36 c19
-19 14 -38 -8 -38 -12 0 -32 -7 -45 -16 -20 -13 -28 -14 -40 -4 -21 17 -19 35
5 37 11 1 30 9 42 17 27 19 31 19 46 4z m714 -18 c5 -32 -4 -36 -49 -24 -30 8
-29 16 5 36 36 23 39 23 44 -12z m-302 -35 c-11 -13 -2 -15 71 -15 87 0 196
-13 261 -31 24 -6 39 -17 44 -32 4 -12 17 -44 30 -71 13 -28 24 -51 24 -53 0
-1 -31 17 -68 42 -108 69 -266 125 -354 125 -26 0 -29 -2 -18 -15 12 -14 1
-15 -97 -9 -76 5 -121 3 -147 -6 -39 -13 -61 -46 -44 -67 8 -9 1 -12 -25 -11
-20 1 -46 -7 -63 -19 l-29 -21 -18 24 c-13 17 -28 24 -53 24 -32 0 -34 2 -24
20 13 24 23 25 44 5 35 -35 103 -6 121 52 5 19 10 21 25 13 27 -15 52 -12 102
10 62 27 145 49 192 49 33 1 37 -1 26 -14z m-390 -30 c26 -32 -13 -81 -47 -59
-35 22 -23 74 17 74 10 0 23 -7 30 -15z m474 -94 c92 -24 219 -85 289 -136
l47 -35 0 -720 0 -719 -26 -25 c-45 -41 -165 -104 -259 -135 -261 -86 -546
-47 -774 108 l-61 42 0 724 0 724 33 25 c54 41 154 96 186 102 29 6 29 6 24
-34 -10 -73 59 -142 127 -129 26 6 28 3 34 -34 4 -27 18 -51 46 -79 67 -67
153 -67 220 0 67 67 67 153 0 220 -43 43 -84 56 -155 47 -37 -4 -45 -1 -50 14
-4 10 -17 27 -31 38 l-25 20 23 5 c55 12 275 -2 352 -23z m-394 -66 c26 -32
-13 -81 -47 -59 -35 22 -23 74 17 74 10 0 23 -7 30 -15z m814 -83 c42 -98 45
-118 16 -102 -16 8 -23 7 -37 -10 -22 -26 -33 -10 -33 51 0 31 -7 55 -20 72
-11 14 -20 28 -20 31 0 11 45 52 52 47 4 -3 23 -44 42 -89z m-743 68 c23 -13
24 -28 3 -51 -39 -43 -3 -108 58 -109 26 0 27 -2 16 -25 -9 -20 -8 -28 6 -44
16 -17 16 -18 -6 -16 -13 1 -26 3 -29 4 -16 3 -60 57 -65 80 -4 14 -17 38 -31
52 l-24 26 21 25 c11 15 20 36 20 47 0 24 4 25 31 11z m174 -41 c24 -22 35
-39 34 -58 0 -14 -3 -20 -6 -13 -6 14 -39 16 -48 2 -12 -19 -25 -10 -25 18 0
16 -9 39 -20 52 -25 29 -25 30 5 30 13 0 40 -14 60 -31z m-85 -24 c26 -32 -13
-81 -47 -59 -35 22 -23 74 17 74 10 0 23 -7 30 -15z m95 -72 c-4 -16 -12 -34
-18 -42 -15 -17 -77 -44 -85 -37 -6 7 -7 6 33 26 17 8 37 30 45 47 18 40 35
43 25 6z m794 -621 c88 -216 161 -398 161 -403 0 -33 -126 -186 -206 -250 -60
-47 -183 -123 -190 -116 -3 3 -6 1298 -4 1352 0 6 18 -35 39 -90 21 -55 111
-277 200 -493z m-220 -813 c1 -7 -68 -34 -113 -45 l-30 -7 44 51 44 50 27 -21
c15 -12 28 -25 28 -28z"/>
<path d="M751 1676 c-8 -9 -10 -141 -9 -471 3 -423 4 -459 20 -469 13 -8 23
-8 35 0 17 10 18 46 21 469 2 473 1 485 -38 485 -10 0 -23 -6 -29 -14z"/>
<path d="M991 1676 c-8 -9 -11 -89 -9 -271 3 -233 5 -259 21 -269 12 -8 22 -8
35 0 15 10 17 36 20 269 2 266 0 285 -38 285 -10 0 -23 -6 -29 -14z"/>
<path d="M1231 1676 c-8 -9 -10 -121 -9 -391 3 -347 4 -379 21 -389 12 -8 22
-8 35 0 16 10 17 42 20 389 2 390 1 405 -38 405 -10 0 -23 -6 -29 -14z"/>
<path d="M1471 1676 c-8 -9 -11 -100 -9 -311 3 -271 5 -299 21 -309 12 -8 22
-8 35 0 15 10 17 38 20 309 2 307 0 325 -38 325 -10 0 -23 -6 -29 -14z"/>
</g>
</svg>
